<svg width="133" height="139" viewBox="0 0 133 139" fill="none" xmlns="http://www.w3.org/2000/svg">
<circle cx="64.889" cy="73.7366" r="64.889" transform="rotate(-180 64.889 73.7366)" fill="url(#paint0_linear)"/>
<path d="M106.313 69.6546C110.906 65.0675 104.428 55.3792 110.801 54.1457C119.291 54.6935 123.125 61.246 123.838 69.1429C125.488 87.4278 115.242 108.695 100.215 119.242C81.4952 132.381 51.8728 135.659 52.8568 120.575C53.7467 106.932 70.9965 102.006 84.6661 101.789C125.907 101.133 79.1789 96.7547 106.313 69.6546Z" fill="#FFB257"/>
<path d="M35.1533 35.7634C31.3527 35.8179 31.3295 42.9463 28.262 40.7018C26.3227 37.2267 29.9001 32.6685 35.0596 28.827C45.1321 21.3277 58.2014 15.2544 70.717 16.2816C81.2871 17.1491 89.5512 23.6271 86.4472 29.3228C80.8084 39.6698 63.6925 15.453 56.8407 25.04C54.7681 27.94 51.8144 35.5243 35.1533 35.7634Z" fill="#FFB257"/>
<path d="M84.8642 83.667C61.5482 104.8 38.5072 106.495 21.4156 95.4032C16.7972 92.4061 14.5848 86.8731 14.8541 81.3741C16.977 38.0318 36.1101 76.4055 72.8387 71.1921C77.3427 70.5528 80.0212 66.0971 79.3013 61.6053C75.9868 40.9241 75.4933 27.3542 91.6418 45.171C109.766 65.1676 88.2344 58.2137 84.8642 83.667Z" fill="#FFB257"/>
<path d="M59.5157 45.5773C59.5157 41.1822 60.8404 39.9099 66.2498 39.9099C76.1173 48.8486 74.1052 49.6879 70.9398 48.9398C68.7385 48.4195 66.6929 50.4954 64.886 51.8561C62.9092 53.3449 59.5157 51.541 59.5157 51.541C58.9043 45.4194 59.5157 49.9724 59.5157 45.5773Z" fill="#FFB257"/>
<path d="M60.3942 61.7172C60.3942 61.7172 60.7208 61.7172 62.4883 61.7172C62.4883 61.7172 64.8887 60.7029 64.8887 62.9932C64.8887 65.2835 62.1618 65.1653 60.3942 65.1653C60.3942 65.1653 59.4879 63.9502 60.3942 61.7172Z" fill="#FFB257"/>
<path d="M67.3858 56.8716C67.3858 56.8716 65.6182 55.5956 67.3858 55.5956C67.3858 55.5956 69.7861 54.5812 69.7861 56.8716C69.7861 57.9188 69.216 58.4625 68.4281 58.7442C68.329 58.7796 67.3462 56.9691 67.3858 56.8716Z" fill="#FFB257"/>
<path d="M47.7486 55.3718C47.7486 55.3718 50.8783 51.6988 52.6458 51.6988C52.6458 51.6988 55.0945 54.5812 55.0945 56.8716C55.0945 59.1619 52.3676 59.0437 50.6 59.0437C50.6 59.0437 48.3607 57.8204 47.7486 55.3718Z" fill="#FFB257"/>
<defs>
<linearGradient id="paint0_linear" x1="83.5518" y1="8.67943" x2="3.05177" y2="115.679" gradientUnits="userSpaceOnUse">
<stop stop-color="#0068C8"/>
<stop offset="1" stop-color="#0085FF"/>
</linearGradient>
</defs>
</svg>
