<svg width="180" height="205" viewBox="0 0 180 205" fill="none" xmlns="http://www.w3.org/2000/svg">
<path d="M79.9055 45.3495C87.5934 28.5913 95.6253 16.3664 102.772 10.5458C109.919 4.72511 115.787 5.62928 119.478 13.1199C123.169 20.6105 124.48 34.275 123.21 52.0221C121.94 69.7692 118.159 90.6213 112.446 111.387C106.733 132.153 99.4028 151.689 91.5765 167.005C83.7503 182.321 75.8595 192.574 69.1117 196.194C62.3639 199.814 57.1309 196.602 54.2134 187.05C51.296 177.497 50.8548 162.131 52.9575 143.302L58.5725 136.652C56.81 152.435 57.1798 165.316 59.6253 173.323C62.0707 181.33 66.4572 184.022 72.1133 180.988C77.7694 177.953 84.3837 169.359 90.9438 156.521C97.5039 143.683 103.649 127.307 108.437 109.901C113.226 92.4943 116.395 75.0157 117.46 60.1397C118.524 45.2637 117.425 33.8098 114.331 27.531C111.237 21.2522 106.319 20.4943 100.328 25.3733C94.3376 30.2523 87.6051 40.4995 81.1609 54.5465L79.9055 45.3495Z" fill="#578CDC"/>
<path d="M146.579 108.464C161.27 116.958 171.732 124.975 176.445 131.348C181.157 137.72 179.874 142.117 172.781 143.896C165.688 145.676 153.157 144.747 137.009 141.243C120.862 137.74 101.942 131.846 83.002 124.418C64.0622 116.99 46.0911 108.416 31.7039 99.9447C17.3166 91.473 7.26388 83.5452 3.00864 77.315C-1.24661 71.0848 0.517653 66.8773 8.04468 65.3047C15.5717 63.7322 28.4687 64.8766 44.859 68.5715L52.1598 74.416C38.4212 71.3189 27.6106 70.3596 21.3013 71.6777C14.992 72.9959 13.5132 76.5227 17.08 81.745C20.6468 86.9673 29.0732 93.6125 41.1329 100.714C53.1926 107.815 68.2564 115.001 84.1321 121.228C100.008 127.454 115.867 132.395 129.402 135.331C142.937 138.268 153.442 139.047 159.387 137.555C165.332 136.063 166.408 132.378 162.458 127.036C158.508 121.695 149.738 114.975 137.424 107.855L146.579 108.464Z" fill="#578CDC"/>
<circle cx="90.9077" cy="101.401" r="64.889" fill="url(#paint0_linear)"/>
<mask id="mask0" mask-type="alpha" maskUnits="userSpaceOnUse" x="26" y="36" width="130" height="78">
<path d="M26.018 101.402C26.018 65.5643 55.0698 36.5126 90.907 36.5126C126.744 36.5126 155.796 65.5644 155.796 101.402C136.207 116.094 129.193 96.5053 93.3556 96.5053C57.5184 96.5053 38.8733 130.783 26.018 101.402Z" fill="#9E9E9E"/>
</mask>
<g mask="url(#mask0)">
<circle cx="90.9077" cy="101.401" r="64.889" fill="url(#paint1_linear)"/>
</g>
<ellipse cx="54.9448" cy="77.3211" rx="10.4067" ry="8.57024" transform="rotate(-48.4336 54.9448 77.3211)" fill="#578CDC"/>
<mask id="mask1" mask-type="alpha" maskUnits="userSpaceOnUse" x="41" y="63" width="23" height="24">
<path d="M48.0401 85.1073C44.4988 81.9669 44.7193 75.935 48.5327 71.6349C52.3461 67.3347 58.3083 66.3945 61.8496 69.5349C61.217 73.173 58.535 72.298 54.7216 76.5982C50.9082 80.8984 52.3115 86.1395 48.0401 85.1073Z" fill="#9E9E9E"/>
</mask>
<g mask="url(#mask1)">
<ellipse cx="54.9448" cy="77.3211" rx="10.4067" ry="8.57024" transform="rotate(-48.4336 54.9448 77.3211)" fill="#578CDC"/>
</g>
<ellipse cx="53.5961" cy="95.4821" rx="4.46063" ry="3.0394" transform="rotate(-94.7008 53.5961 95.4821)" fill="#578CDC"/>
<mask id="mask2" mask-type="alpha" maskUnits="userSpaceOnUse" x="50" y="90" width="5" height="11">
<path d="M53.9589 99.927C52.2859 100.065 50.7661 98.1857 50.5642 95.7305C50.3623 93.2752 51.5548 91.1733 53.2278 91.0357C54.024 92.3214 53.1491 92.8772 53.351 95.3324C53.5529 97.7877 55.2581 98.9335 53.9589 99.927Z" fill="#9E9E9E"/>
</mask>
<g mask="url(#mask2)">
<ellipse cx="53.5961" cy="95.4821" rx="4.46063" ry="3.0394" transform="rotate(-94.7008 53.5961 95.4821)" fill="#578CDC"/>
</g>
<ellipse cx="144.195" cy="86.912" rx="4.46063" ry="3.0394" transform="rotate(-94.7008 144.195 86.912)" fill="#578CDC"/>
<mask id="mask3" mask-type="alpha" maskUnits="userSpaceOnUse" x="140" y="82" width="6" height="10">
<path d="M144.559 91.3568C142.886 91.4944 141.366 89.6155 141.164 87.1603C140.962 84.705 142.154 82.6031 143.827 82.4656C144.624 83.7512 143.749 84.307 143.951 86.7622C144.153 89.2175 145.858 90.3633 144.559 91.3568Z" fill="#9E9E9E"/>
</mask>
<g mask="url(#mask3)">
<ellipse cx="144.195" cy="86.912" rx="4.46063" ry="3.0394" transform="rotate(-94.7008 144.195 86.912)" fill="#578CDC"/>
</g>
<ellipse cx="70.7359" cy="68.5473" rx="4.46063" ry="3.0394" transform="rotate(-94.7008 70.7359 68.5473)" fill="#578CDC"/>
<mask id="mask4" mask-type="alpha" maskUnits="userSpaceOnUse" x="67" y="64" width="5" height="10">
<path d="M71.0993 72.992C69.4263 73.1295 67.9064 71.2507 67.7045 68.7954C67.5027 66.3402 68.6952 64.2383 70.3682 64.1007C71.1644 65.3864 70.2895 65.9421 70.4914 68.3974C70.6933 70.8526 72.3985 71.9984 71.0993 72.992Z" fill="#9E9E9E"/>
</mask>
<g mask="url(#mask4)">
<ellipse cx="70.7359" cy="68.5473" rx="4.46063" ry="3.0394" transform="rotate(-94.7008 70.7359 68.5473)" fill="#578CDC"/>
</g>
<ellipse cx="117.149" cy="144.645" rx="4.46063" ry="5.38566" transform="rotate(-94.7008 117.149 144.645)" fill="#578CDC"/>
<mask id="mask5" mask-type="alpha" maskUnits="userSpaceOnUse" x="111" y="140" width="8" height="10">
<path d="M117.514 149.09C114.549 149.334 111.982 147.541 111.781 145.086C111.579 142.63 113.818 140.442 116.783 140.199C118.108 141.441 116.527 142.055 116.729 144.51C116.931 146.965 119.872 148.009 117.514 149.09Z" fill="#9E9E9E"/>
</mask>
<g mask="url(#mask5)">
<ellipse cx="117.149" cy="144.645" rx="4.46063" ry="5.38566" transform="rotate(-94.7008 117.149 144.645)" fill="#578CDC"/>
</g>
<path d="M102.921 10.3863C108.031 6.21191 112.518 5.44911 116.023 8.15909C119.527 10.8691 121.952 16.9765 123.103 25.9916C124.253 35.0068 124.097 46.679 122.647 60.0725C121.197 73.466 118.494 88.2083 114.754 103.117C111.014 118.027 106.341 132.688 101.109 145.926C95.8783 159.164 90.2345 170.611 84.6305 179.349C79.0265 188.087 73.6182 193.872 68.8391 196.242C64.06 198.612 60.0431 197.5 57.1104 192.995L62.083 178.276C64.5413 182.052 67.9083 182.984 71.9142 180.998C75.9202 179.011 80.4535 174.162 85.1509 166.838C89.8483 159.513 94.579 149.918 98.9639 138.822C103.349 127.725 107.266 115.436 110.401 102.939C113.536 90.4415 115.802 78.0842 117.017 66.8575C118.233 55.6308 118.363 45.8469 117.399 38.2902C116.435 30.7335 114.402 25.6141 111.465 23.3426C108.527 21.071 104.765 21.7104 100.482 25.2095L102.921 10.3863Z" fill="#578CDC"/>
<path d="M173.919 128.349C178.658 133.404 180.26 137.523 178.596 140.376C176.931 143.229 172.047 144.736 164.334 144.777C156.621 144.818 146.295 143.392 134.182 140.612C122.069 137.832 108.507 133.777 94.5838 128.771C80.6602 123.765 66.762 117.947 54.0034 111.784C41.2448 105.622 29.9806 99.2853 21.114 93.2832C12.2474 87.2812 6.02493 81.7805 2.94542 77.2219C-0.13409 72.6634 0.0150329 69.174 3.38083 67.0333L17.392 73.1266C14.5707 74.921 14.4457 77.846 17.027 81.667C19.6083 85.488 24.8241 90.0989 32.2563 95.1299C39.6885 100.161 49.1303 105.472 59.8248 110.638C70.5194 115.804 82.1691 120.68 93.8402 124.876C105.511 129.073 116.879 132.472 127.032 134.802C137.185 137.132 145.841 138.328 152.306 138.293C158.771 138.259 162.866 136.995 164.261 134.604C165.656 132.213 164.313 128.76 160.34 124.523L173.919 128.349Z" fill="#578CDC"/>
<defs>
<linearGradient id="paint0_linear" x1="90.9077" y1="36.5125" x2="90.9077" y2="166.29" gradientUnits="userSpaceOnUse">
<stop stop-color="#FFB257"/>
<stop offset="1" stop-color="#FF7A00"/>
</linearGradient>
<linearGradient id="paint1_linear" x1="90.9077" y1="36.5125" x2="90.9077" y2="166.29" gradientUnits="userSpaceOnUse">
<stop stop-color="#FFB257"/>
<stop offset="1" stop-color="#FF7A00"/>
</linearGradient>
</defs>
</svg>
