<svg width="130" height="130" viewBox="0 0 130 130" fill="none" xmlns="http://www.w3.org/2000/svg">
<ellipse cx="32.3924" cy="36.9466" rx="10.45" ry="8.60587" transform="rotate(-48.4336 32.3924 36.9466)" fill="#FFE5C6"/>
<mask id="mask0" mask-type="alpha" maskUnits="userSpaceOnUse" x="19" y="23" width="22" height="23">
<path d="M25.4553 44.7666C21.8993 41.6131 22.1207 35.5562 25.9499 31.2382C29.7792 26.9201 35.7661 25.976 39.3222 29.1295C38.687 32.7827 35.9938 31.9041 32.1645 36.2222C28.3353 40.5402 29.7444 45.8031 25.4553 44.7666Z" fill="#9E9E9E"/>
</mask>
<g mask="url(#mask0)">
<ellipse cx="32.3924" cy="36.9466" rx="10.45" ry="8.60587" transform="rotate(-48.4336 32.3924 36.9466)" fill="#FFE5C6"/>
</g>
<ellipse cx="69.2707" cy="115.63" rx="10.45" ry="8.60587" transform="rotate(-48.4336 69.2707 115.63)" fill="#FFE5C6"/>
<ellipse cx="102.468" cy="99.645" rx="10.45" ry="8.60587" transform="rotate(-48.4336 102.468 99.645)" fill="#FFE5C6"/>
<mask id="mask1" mask-type="alpha" maskUnits="userSpaceOnUse" x="89" y="86" width="22" height="23">
<path d="M95.5321 107.467C91.976 104.314 92.1975 98.2566 96.0267 93.9386C99.8559 89.6205 105.843 88.6764 109.399 91.8299C108.764 95.4831 106.071 94.6045 102.241 98.9226C98.4121 103.241 99.8212 108.503 95.5321 107.467Z" fill="#9E9E9E"/>
</mask>
<g mask="url(#mask1)">
<ellipse cx="102.468" cy="99.645" rx="10.45" ry="8.60587" transform="rotate(-48.4336 102.468 99.645)" fill="#FFE5C6"/>
</g>
<ellipse cx="37.3064" cy="67.6829" rx="10.45" ry="8.60587" transform="rotate(-48.4336 37.3064 67.6829)" fill="#FFE5C6"/>
<mask id="mask2" mask-type="alpha" maskUnits="userSpaceOnUse" x="23" y="54" width="23" height="23">
<path d="M30.3733 75.5017C26.8172 72.3482 27.0386 66.2913 30.8679 61.9732C34.6971 57.6552 40.6841 56.7111 44.2401 59.8646C43.605 63.5178 40.9117 62.6392 37.0825 66.9572C33.2533 71.2753 34.6623 76.5381 30.3733 75.5017Z" fill="#9E9E9E"/>
</mask>
<g mask="url(#mask2)">
<ellipse cx="37.3064" cy="67.6829" rx="10.45" ry="8.60587" transform="rotate(-48.4336 37.3064 67.6829)" fill="#FFE5C6"/>
</g>
<ellipse cx="80.9306" cy="45.1456" rx="25.3259" ry="20.8567" transform="rotate(-48.4336 80.9306 45.1456)" fill="#FFE5C6"/>
<mask id="mask3" mask-type="alpha" maskUnits="userSpaceOnUse" x="48" y="12" width="53" height="55">
<path d="M64.1289 64.0925C55.5106 56.4499 56.0473 41.7708 65.3276 31.3058C74.6079 20.8408 89.1175 18.5528 97.7358 26.1954C96.1964 35.0491 89.6692 32.9198 80.389 43.3848C71.1087 53.8498 74.5237 66.6045 64.1289 64.0925Z" fill="#9E9E9E"/>
</mask>
<g mask="url(#mask3)">
<ellipse cx="80.9306" cy="45.1456" rx="25.3259" ry="20.8567" transform="rotate(-48.4336 80.9306 45.1456)" fill="#FFE5C6"/>
</g>
<ellipse cx="112.173" cy="66.2491" rx="4.47918" ry="3.05203" transform="rotate(-94.7008 112.173 66.2491)" fill="#FFE5C6"/>
<mask id="mask4" mask-type="alpha" maskUnits="userSpaceOnUse" x="108" y="61" width="6" height="10">
<path d="M112.54 70.712C110.86 70.8502 109.333 68.9635 109.131 66.498C108.928 64.0326 110.126 61.9219 111.805 61.7838C112.605 63.0748 111.726 63.6329 111.929 66.0983C112.132 68.5638 113.844 69.7144 112.54 70.712Z" fill="#9E9E9E"/>
</mask>
<g mask="url(#mask4)">
<ellipse cx="112.173" cy="66.2491" rx="4.47918" ry="3.05203" transform="rotate(-94.7008 112.173 66.2491)" fill="#FFE5C6"/>
</g>
<ellipse cx="76.5218" cy="85.9193" rx="4.47918" ry="3.05203" transform="rotate(-94.7008 76.5218 85.9193)" fill="#FFE5C6"/>
<mask id="mask5" mask-type="alpha" maskUnits="userSpaceOnUse" x="73" y="81" width="5" height="10">
<path d="M76.8865 90.3824C75.2066 90.5205 73.6804 88.6338 73.4777 86.1684C73.275 83.7029 74.4725 81.5923 76.1524 81.4541C76.952 82.7452 76.0734 83.3032 76.2761 85.7687C76.4788 88.2341 78.1911 89.3847 76.8865 90.3824Z" fill="#9E9E9E"/>
</mask>
<g mask="url(#mask5)">
<ellipse cx="76.5218" cy="85.9193" rx="4.47918" ry="3.05203" transform="rotate(-94.7008 76.5218 85.9193)" fill="#FFE5C6"/>
</g>
<ellipse cx="54.3903" cy="61.3317" rx="4.47918" ry="3.05203" transform="rotate(-94.7008 54.3903 61.3317)" fill="#FFE5C6"/>
<mask id="mask6" mask-type="alpha" maskUnits="userSpaceOnUse" x="50" y="56" width="6" height="11">
<path d="M54.7581 65.7945C53.0781 65.9326 51.5519 64.0459 51.3492 61.5805C51.1465 59.115 52.344 57.0044 54.0239 56.8662C54.8235 58.1573 53.9449 58.7153 54.1476 61.1808C54.3503 63.6462 56.0626 64.7968 54.7581 65.7945Z" fill="#9E9E9E"/>
</mask>
<g mask="url(#mask6)">
<ellipse cx="54.3903" cy="61.3317" rx="4.47918" ry="3.05203" transform="rotate(-94.7008 54.3903 61.3317)" fill="#FFE5C6"/>
</g>
<ellipse cx="33.4939" cy="101.902" rx="4.47918" ry="3.05203" transform="rotate(-94.7008 33.4939 101.902)" fill="#FFE5C6"/>
<mask id="mask7" mask-type="alpha" maskUnits="userSpaceOnUse" x="30" y="97" width="5" height="10">
<path d="M33.8578 106.365C32.1778 106.503 30.6516 104.616 30.4489 102.151C30.2462 99.6853 31.4437 97.5746 33.1236 97.4365C33.9232 98.7275 33.0446 99.2856 33.2473 101.751C33.45 104.216 35.1623 105.367 33.8578 106.365Z" fill="#9E9E9E"/>
</mask>
<g mask="url(#mask7)">
<ellipse cx="33.4939" cy="101.902" rx="4.47918" ry="3.05203" transform="rotate(-94.7008 33.4939 101.902)" fill="#FFE5C6"/>
</g>
<ellipse cx="48.2468" cy="28.137" rx="4.47918" ry="3.05203" transform="rotate(-94.7008 48.2468 28.137)" fill="#FFE5C6"/>
<mask id="mask8" mask-type="alpha" maskUnits="userSpaceOnUse" x="44" y="23" width="6" height="10">
<path d="M48.6099 32.5999C46.93 32.738 45.4038 30.8514 45.2011 28.3859C44.9983 25.9204 46.1958 23.8098 47.8758 23.6717C48.6753 24.9627 47.7967 25.5207 47.9995 27.9862C48.2022 30.4517 49.9145 31.6022 48.6099 32.5999Z" fill="#9E9E9E"/>
</mask>
<g mask="url(#mask8)">
<ellipse cx="48.2468" cy="28.137" rx="4.47918" ry="3.05203" transform="rotate(-94.7008 48.2468 28.137)" fill="#FFE5C6"/>
</g>
<circle cx="65" cy="65" r="65" fill="url(#paint0_linear)"/>
<ellipse cx="36.077" cy="35.7181" rx="10.45" ry="8.60587" transform="rotate(-48.4336 36.077 35.7181)" fill="#FFE5C6"/>
<mask id="mask9" mask-type="alpha" maskUnits="userSpaceOnUse" x="22" y="22" width="23" height="23">
<path d="M29.144 43.5367C25.588 40.3833 25.8094 34.3264 29.6387 30.0083C33.4679 25.6902 39.4548 24.7462 43.0109 27.8996C42.3757 31.5529 39.6825 30.6743 35.8533 34.9923C32.024 39.3104 33.4331 44.5732 29.144 43.5367Z" fill="#9E9E9E"/>
</mask>
<g mask="url(#mask9)">
<ellipse cx="36.077" cy="35.7181" rx="10.45" ry="8.60587" transform="rotate(-48.4336 36.077 35.7181)" fill="#FFE5C6"/>
</g>
<ellipse cx="72.9592" cy="114.401" rx="10.45" ry="8.60587" transform="rotate(-48.4336 72.9592 114.401)" fill="#FFE5C6"/>
<ellipse cx="106.154" cy="98.4181" rx="10.45" ry="8.60587" transform="rotate(-48.4336 106.154 98.4181)" fill="#FFE5C6"/>
<mask id="mask10" mask-type="alpha" maskUnits="userSpaceOnUse" x="92" y="84" width="23" height="24">
<path d="M99.2208 106.237C95.6647 103.083 95.8862 97.0261 99.7154 92.7081C103.545 88.39 109.532 87.4459 113.088 90.5994C112.452 94.2526 109.759 93.374 105.93 97.6921C102.101 102.01 103.51 107.273 99.2208 106.237Z" fill="#9E9E9E"/>
</mask>
<g mask="url(#mask10)">
<ellipse cx="106.154" cy="98.4181" rx="10.45" ry="8.60587" transform="rotate(-48.4336 106.154 98.4181)" fill="#FFE5C6"/>
</g>
<ellipse cx="40.9995" cy="66.453" rx="10.45" ry="8.60587" transform="rotate(-48.4336 40.9995 66.453)" fill="#FFE5C6"/>
<mask id="mask11" mask-type="alpha" maskUnits="userSpaceOnUse" x="27" y="52" width="23" height="24">
<path d="M34.0619 74.2721C30.5058 71.1186 30.7273 65.0617 34.5565 60.7437C38.3858 56.4256 44.3727 55.4815 47.9288 58.635C47.2936 62.2882 44.6004 61.4096 40.7711 65.7277C36.9419 70.0457 38.351 75.3086 34.0619 74.2721Z" fill="#9E9E9E"/>
</mask>
<g mask="url(#mask11)">
<ellipse cx="40.9995" cy="66.453" rx="10.45" ry="8.60587" transform="rotate(-48.4336 40.9995 66.453)" fill="#FFE5C6"/>
</g>
<ellipse cx="84.619" cy="43.9164" rx="25.3259" ry="20.8567" transform="rotate(-48.4336 84.619 43.9164)" fill="#FFE5C6"/>
<mask id="mask12" mask-type="alpha" maskUnits="userSpaceOnUse" x="52" y="11" width="53" height="55">
<path d="M67.8169 62.8626C59.1987 55.2201 59.7354 40.5409 69.0157 30.0759C78.2959 19.611 92.8056 17.3229 101.424 24.9655C99.8844 33.8192 93.3573 31.6899 84.077 42.1549C74.7967 52.6199 78.2117 65.3746 67.8169 62.8626Z" fill="#9E9E9E"/>
</mask>
<g mask="url(#mask12)">
<ellipse cx="84.619" cy="43.9164" rx="25.3259" ry="20.8567" transform="rotate(-48.4336 84.619 43.9164)" fill="#FFE5C6"/>
</g>
<ellipse cx="115.861" cy="65.0199" rx="4.47918" ry="3.05203" transform="rotate(-94.7008 115.861 65.0199)" fill="#FFE5C6"/>
<mask id="mask13" mask-type="alpha" maskUnits="userSpaceOnUse" x="112" y="60" width="5" height="10">
<path d="M116.228 69.4831C114.548 69.6212 113.022 67.7346 112.819 65.2691C112.616 62.8036 113.814 60.693 115.493 60.5549C116.293 61.8459 115.414 62.4039 115.617 64.8694C115.82 67.3349 117.532 68.4854 116.228 69.4831Z" fill="#9E9E9E"/>
</mask>
<g mask="url(#mask13)">
<ellipse cx="115.861" cy="65.0199" rx="4.47918" ry="3.05203" transform="rotate(-94.7008 115.861 65.0199)" fill="#FFE5C6"/>
</g>
<ellipse cx="80.21" cy="84.69" rx="4.47918" ry="3.05203" transform="rotate(-94.7008 80.21 84.69)" fill="#FFE5C6"/>
<mask id="mask14" mask-type="alpha" maskUnits="userSpaceOnUse" x="76" y="80" width="6" height="10">
<path d="M80.5746 89.1535C78.8947 89.2916 77.3685 87.4049 77.1658 84.9395C76.963 82.474 78.1605 80.3634 79.8405 80.2252C80.64 81.5163 79.7614 82.0743 79.9642 84.5398C80.1669 87.0052 81.8792 88.1558 80.5746 89.1535Z" fill="#9E9E9E"/>
</mask>
<g mask="url(#mask14)">
<ellipse cx="80.21" cy="84.69" rx="4.47918" ry="3.05203" transform="rotate(-94.7008 80.21 84.69)" fill="#FFE5C6"/>
</g>
<ellipse cx="58.0783" cy="60.102" rx="4.47918" ry="3.05203" transform="rotate(-94.7008 58.0783 60.102)" fill="#FFE5C6"/>
<mask id="mask15" mask-type="alpha" maskUnits="userSpaceOnUse" x="54" y="55" width="6" height="10">
<path d="M58.4451 64.5652C56.7652 64.7034 55.239 62.8167 55.0362 60.3513C54.8335 57.8858 56.031 55.7752 57.7109 55.637C58.5105 56.928 57.6319 57.4861 57.8346 59.9516C58.0374 62.417 59.7497 63.5676 58.4451 64.5652Z" fill="#9E9E9E"/>
</mask>
<g mask="url(#mask15)">
<ellipse cx="58.0783" cy="60.102" rx="4.47918" ry="3.05203" transform="rotate(-94.7008 58.0783 60.102)" fill="#FFE5C6"/>
</g>
<ellipse cx="37.1817" cy="100.672" rx="4.47918" ry="3.05203" transform="rotate(-94.7008 37.1817 100.672)" fill="#FFE5C6"/>
<mask id="mask16" mask-type="alpha" maskUnits="userSpaceOnUse" x="33" y="96" width="6" height="10">
<path d="M37.545 105.136C35.865 105.274 34.3388 103.387 34.1361 100.922C33.9334 98.456 35.1309 96.3454 36.8108 96.2073C37.6104 97.4983 36.7318 98.0563 36.9345 100.522C37.1372 102.987 38.8496 104.138 37.545 105.136Z" fill="#9E9E9E"/>
</mask>
<g mask="url(#mask16)">
<ellipse cx="37.1817" cy="100.672" rx="4.47918" ry="3.05203" transform="rotate(-94.7008 37.1817 100.672)" fill="#FFE5C6"/>
</g>
<defs>
<linearGradient id="paint0_linear" x1="112.964" y1="0.139553" x2="23.0917" y2="105.576" gradientUnits="userSpaceOnUse">
<stop stop-color="#FFD749"/>
<stop offset="1" stop-color="#F4450E"/>
</linearGradient>
</defs>
</svg>
