<svg width="129" height="130" viewBox="0 0 129 130" fill="none" xmlns="http://www.w3.org/2000/svg">
<ellipse cx="64.5" cy="65" rx="64.5" ry="65" transform="rotate(-180 64.5 65)" fill="#A8BE1D"/>
<path d="M129 65.3163C129 88.1342 117.314 101.514 100.563 97.1933C74.1094 90.3699 51.4429 71.5754 25.3862 79.7859C10.1482 84.5873 0 85.6561 0 65.3163C0 29.2431 28.8776 0 64.5 0C100.122 0 129 29.2431 129 65.3163Z" fill="#FFC700"/>
<path d="M0 65.0462C0 29.1222 28.8776 0 64.5 0C100.122 0 129 29.1222 129 65.0462C129 100.97 100.122 37.0296 64.5 37.0296C28.8776 37.0296 0 100.97 0 65.0462Z" fill="#81CB22"/>
</svg>
