<svg width="206" height="153" viewBox="0 0 206 153" fill="none" xmlns="http://www.w3.org/2000/svg">
<path d="M64.2563 69.0975C76.5162 60.4529 89.9668 52.1796 103.589 44.9044C117.211 37.6293 130.646 31.5433 142.878 27.1077C155.109 22.6721 165.815 20.0034 174.184 19.3037C182.553 18.604 188.365 19.8918 191.181 23.0694C193.996 26.2471 193.74 31.2312 190.433 37.644C187.126 44.0568 180.854 51.73 172.093 60.0821C163.332 68.4341 152.311 77.2459 139.866 85.8494C127.421 94.453 113.879 102.623 100.265 109.739L100.425 108.031C113.338 101.28 126.183 93.5315 137.987 85.371C149.792 77.2104 160.245 68.8524 168.555 60.9303C176.865 53.0083 182.814 45.7302 185.951 39.6476C189.088 33.5649 189.33 28.8375 186.659 25.8234C183.989 22.8094 178.476 21.5879 170.538 22.2516C162.6 22.9152 152.445 25.4466 140.844 29.6538C129.242 33.861 116.498 39.6336 103.578 46.5342C90.6571 53.4347 77.899 61.2821 66.2704 69.4816L64.2563 69.0975Z" fill="#555555"/>
<circle cx="99.889" cy="85.8889" r="64.889" transform="rotate(-180 99.889 85.8889)" fill="url(#paint0_linear)"/>
<path d="M20.4221 108.893C28.5532 97.6234 43.4253 83.9898 62.3781 70.4314C81.3309 56.8731 103.128 44.2743 123.871 34.8887C144.613 25.5032 162.948 19.9431 175.595 19.2031C188.243 18.463 194.378 22.5913 192.903 30.8494L188.704 32.9933C190.109 25.1225 184.262 21.1878 172.208 21.8932C160.154 22.5985 142.679 27.8978 122.909 36.8431C103.14 45.7885 82.3648 57.7963 64.3009 70.7188C46.2371 83.6412 32.0625 96.6353 24.3128 107.377L20.4221 108.893Z" fill="#555555"/>
<circle cx="19.9037" cy="109.716" r="6.1216" transform="rotate(-180 19.9037 109.716)" fill="#565656"/>
<defs>
<linearGradient id="paint0_linear" x1="99.889" y1="21" x2="99.889" y2="150.778" gradientUnits="userSpaceOnUse">
<stop stop-color="#038C3A"/>
<stop offset="1" stop-color="#00E85D"/>
</linearGradient>
</defs>
</svg>
