<svg width="131" height="139" viewBox="0 0 131 139" fill="none" xmlns="http://www.w3.org/2000/svg">
<circle cx="65.3373" cy="64.889" r="64.889" fill="#3DA2FF"/>
<path d="M95.0727 102.862C98.8733 102.808 98.8964 95.6792 101.964 97.9237C103.903 101.399 100.326 105.957 95.1663 109.799C85.0938 117.298 72.0245 123.371 59.509 122.344C48.9389 121.476 40.6748 114.998 43.7787 109.303C49.4175 98.9557 66.5335 123.173 73.3852 113.586C75.4578 110.686 78.4116 103.101 95.0727 102.862Z" fill="#BBD51B"/>
<path d="M45.3621 54.9586C68.6781 33.8257 91.7191 32.131 108.811 43.2224C113.429 46.2194 115.642 51.7524 115.372 57.2515C113.249 100.594 94.1162 62.2201 57.3876 67.4335C52.8836 68.0728 50.2051 72.5285 50.925 77.0203C54.2395 97.7015 54.733 111.271 38.5845 93.4546C20.4602 73.4579 41.9919 80.4118 45.3621 54.9586Z" fill="#BBD51B"/>
<path d="M70.7101 93.0483C70.7101 97.4435 69.3855 98.7157 63.9761 98.7157C54.1085 89.777 56.1206 88.9377 59.286 89.6858C61.4873 90.2061 63.533 88.1303 65.3398 86.7695C67.3166 85.2807 70.7101 87.0846 70.7101 87.0846C71.3216 93.2062 70.7101 88.6532 70.7101 93.0483Z" fill="#BBD51B"/>
<path d="M22.0197 43.8677C22.0197 48.2628 20.695 49.5351 15.2856 49.5351C5.41807 40.5963 7.43021 39.757 10.5956 40.5051C12.7969 41.0254 14.8425 38.9496 16.6494 37.5888C18.6262 36.1 22.0197 37.9039 22.0197 37.9039C22.6311 44.0255 22.0197 39.4725 22.0197 43.8677Z" fill="#BBD51B"/>
<path d="M69.832 76.9084C69.832 76.9084 69.5054 76.9084 67.7379 76.9084C67.7379 76.9084 65.3375 77.9227 65.3375 75.6324C65.3375 73.3421 68.0644 73.4603 69.832 73.4603C69.832 73.4603 70.7383 74.6754 69.832 76.9084Z" fill="#BBD51B"/>
<path d="M28.4946 40.4492C28.4946 40.4492 28.168 40.4492 26.4005 40.4492C26.4005 40.4492 24.0001 41.4635 24.0001 39.1732C24.0001 36.8829 26.727 37.001 28.4946 37.001C28.4946 37.001 29.4009 38.2162 28.4946 40.4492Z" fill="#BBD51B"/>
<path d="M62.8405 81.754C62.8405 81.754 64.6081 83.03 62.8405 83.03C62.8405 83.03 60.4402 84.0443 60.4402 81.754C60.4402 80.7067 61.0103 80.1631 61.7981 79.8814C61.8973 79.8459 62.8801 81.6564 62.8405 81.754Z" fill="#BBD51B"/>
<path d="M82.4781 83.2538C82.4781 83.2538 79.3483 86.9267 77.5808 86.9267C77.5808 86.9267 75.1321 84.0443 75.1321 81.754C75.1321 79.4637 77.8591 79.5818 79.6266 79.5818C79.6266 79.5818 81.8659 80.8051 82.4781 83.2538Z" fill="#BBD51B"/>
</svg>
