<svg width="133" height="140" viewBox="0 0 133 140" fill="none" xmlns="http://www.w3.org/2000/svg">
<circle cx="67.3373" cy="65.7638" r="64.889" fill="#3DA2FF"/>
<path d="M25.9129 69.8457C21.32 74.4328 27.7986 84.1211 21.4256 85.3546C12.935 84.8068 9.101 78.2544 8.38852 70.3575C6.7388 52.0725 16.9846 30.8056 32.0117 20.2582C50.7311 7.11925 80.3535 3.84106 79.3696 18.9258C78.4797 32.5681 61.2298 37.4941 47.5602 37.7114C6.31976 38.367 53.0474 42.7456 25.9129 69.8457Z" fill="#BBD51B"/>
<path d="M97.0727 103.737C100.873 103.682 100.896 96.5541 103.964 98.7985C105.903 102.274 102.326 106.832 97.1663 110.673C87.0939 118.173 74.0246 124.246 61.509 123.219C50.9389 122.351 42.6748 115.873 45.7788 110.178C51.4176 99.8306 68.5335 124.047 75.3852 114.46C77.4579 111.56 80.4116 103.976 97.0727 103.737Z" fill="#BBD51B"/>
<path d="M47.3621 55.8334C70.6782 34.7005 93.7191 33.0058 110.811 44.0972C115.429 47.0943 117.642 52.6273 117.372 58.1263C115.249 101.469 96.1162 63.0949 59.3876 68.3083C54.8837 68.9476 52.2051 73.4033 52.925 77.8951C56.2396 98.5763 56.733 112.146 40.5845 94.3294C22.4602 74.3327 43.9919 81.2866 47.3621 55.8334Z" fill="#BBD51B"/>
<path d="M72.7102 93.9231C72.7102 98.3182 71.3856 99.5905 65.9762 99.5905C56.1087 90.6518 58.1208 89.8124 61.2862 90.5606C63.4875 91.0809 65.5331 89.005 67.34 87.6443C69.3168 86.1555 72.7102 87.9594 72.7102 87.9594C73.3217 94.081 72.7102 89.528 72.7102 93.9231Z" fill="#BBD51B"/>
<path d="M71.8321 77.7832C71.8321 77.7832 71.5055 77.7832 69.738 77.7832C69.738 77.7832 67.3376 78.7975 67.3376 76.5072C67.3376 74.2169 70.0646 74.335 71.8321 74.335C71.8321 74.335 72.7384 75.5502 71.8321 77.7832Z" fill="#BBD51B"/>
<path d="M64.8405 82.6288C64.8405 82.6288 66.6081 83.9048 64.8405 83.9048C64.8405 83.9048 62.4402 84.9191 62.4402 82.6288C62.4402 81.5816 63.0103 81.0379 63.7982 80.7562C63.8973 80.7207 64.8801 82.5312 64.8405 82.6288Z" fill="#BBD51B"/>
<path d="M84.4781 84.1286C84.4781 84.1286 81.3484 87.8015 79.5808 87.8015C79.5808 87.8015 77.1322 84.9191 77.1322 82.6288C77.1322 80.3385 79.8591 80.4567 81.6267 80.4567C81.6267 80.4567 83.8659 81.6799 84.4781 84.1286Z" fill="#BBD51B"/>
</svg>
