<svg width="159" height="159" viewBox="0 0 159 159" fill="none" xmlns="http://www.w3.org/2000/svg">
<circle cx="79.3511" cy="79.18" r="64.889" transform="rotate(-103.956 79.3511 79.18)" fill="white"/>
<path d="M83.7178 109.918C97.366 120.635 114.173 110.682 126.012 97.9944C127.717 96.1676 129.504 96.4971 131.286 100.335C134.675 119.047 110.307 132.673 95.8403 139.006C61.0611 147.649 28.3806 128.989 19.7372 94.2098C34.5197 96.5706 43.596 78.4137 83.7178 109.918Z" fill="#6D91D6"/>
<path d="M63.9991 17.3944C98.7783 8.75105 122.776 28.0184 132.235 58.4676C138.943 89.7173 132.037 76.9843 117.467 68.434C112.892 65.7489 107.638 68.9214 105.866 73.9218C98.2125 95.5197 83.4544 95.6791 75.8103 64.9209C67.167 30.1416 50.3019 43.5065 63.9991 17.3944Z" fill="#6D91D6"/>
<path d="M58.7651 64.883C63.0305 63.823 63.2488 62.6106 64.5535 67.8602C61.7332 71.8681 60.0281 72.931 58.9974 72.7726C57.0906 72.4795 55.3511 69.9731 53.9734 68.6225C52.3012 66.9831 51.6416 64.1303 51.6416 64.1303C57.435 62.0604 54.4997 65.9431 58.7651 64.883Z" fill="#6D91D6"/>
<path d="M48.9643 64.4389C48.9643 64.4389 49.043 64.7558 49.4693 66.4712C49.4693 66.4712 51.0326 68.556 48.8099 69.1084C46.5872 69.6608 46.0442 66.9859 45.6179 65.2705C45.6179 65.2705 46.5786 64.0979 48.9643 64.4389Z" fill="#6D91D6"/>
<path d="M58.5968 56.584C58.5968 56.584 62.9162 58.7354 63.3425 60.4508C63.3425 60.4508 61.1357 63.5224 58.913 64.0747C56.6903 64.6271 56.1473 61.9522 55.721 60.2368C55.721 60.2368 56.3681 57.7686 58.5968 56.584Z" fill="#6D91D6"/>
</svg>
