<svg width="130" height="131" viewBox="0 0 130 131" fill="none" xmlns="http://www.w3.org/2000/svg">
<path d="M104.087 69.8613C108.68 65.2742 102.201 55.5859 108.574 54.3524C117.065 54.9002 120.899 61.4526 121.611 69.3495C123.261 87.6345 113.015 108.901 97.9883 119.449C79.2689 132.588 49.6465 135.866 50.6304 120.781C51.5203 107.139 68.7702 102.213 82.4398 101.996C123.68 101.34 76.9526 96.9613 104.087 69.8613Z" fill="#FFB257"/>
<path d="M32.927 35.9701C29.1264 36.0246 29.1032 43.153 26.0357 40.9085C24.0964 37.4333 27.6738 32.8752 32.8333 29.0337C42.9058 21.5344 55.9751 15.4611 68.4907 16.4883C79.0608 17.3558 87.3249 23.8338 84.2209 29.5295C78.5821 39.8765 61.4662 15.6597 54.6144 25.2467C52.5418 28.1467 49.5881 35.7309 32.927 35.9701Z" fill="#FFB257"/>
<path d="M82.6379 83.8736C59.3218 105.006 36.2809 106.701 19.1893 95.6098C14.5708 92.6127 12.3584 87.0797 12.6278 81.5807C14.7507 38.2384 33.8838 76.6121 70.6124 71.3987C75.1163 70.7594 77.7949 66.3037 77.075 61.8119C73.7604 41.1307 73.267 27.5608 89.4155 45.3776C107.54 65.3743 86.0081 58.4203 82.6379 83.8736Z" fill="#FFB257"/>
<path d="M57.2894 45.7839C57.2894 41.3888 58.6141 40.1165 64.0235 40.1165C73.891 49.0552 71.8789 49.8945 68.7135 49.1464C66.5122 48.6261 64.4666 50.702 62.6597 52.0627C60.6829 53.5515 57.2894 51.7476 57.2894 51.7476C56.678 45.626 57.2894 50.179 57.2894 45.7839Z" fill="#FFB257"/>
<path d="M58.1679 61.9238C58.1679 61.9238 58.4945 61.9238 60.262 61.9238C60.262 61.9238 62.6624 60.9095 62.6624 63.1998C62.6624 65.4901 59.9354 65.372 58.1679 65.372C58.1679 65.372 57.2616 64.1568 58.1679 61.9238Z" fill="#FFB257"/>
<path d="M65.1595 57.0782C65.1595 57.0782 63.3919 55.8022 65.1595 55.8022C65.1595 55.8022 67.5598 54.7879 67.5598 57.0782C67.5598 58.1254 66.9897 58.6691 66.2018 58.9508C66.1027 58.9862 65.1199 57.1758 65.1595 57.0782Z" fill="#FFB257"/>
<path d="M45.5222 55.5784C45.5222 55.5784 48.6519 51.9054 50.4195 51.9054C50.4195 51.9054 52.8681 54.7879 52.8681 57.0782C52.8681 59.3685 50.1412 59.2503 48.3737 59.2503C48.3737 59.2503 46.1344 58.027 45.5222 55.5784Z" fill="#FFB257"/>
</svg>
