<svg width="130" height="130" viewBox="0 0 130 130" fill="none" xmlns="http://www.w3.org/2000/svg">
<circle cx="64.8889" cy="64.8889" r="64.889" transform="rotate(-180 64.8889 64.8889)" fill="url(#paint0_linear)"/>
<path d="M53.8387 75.4336C41.897 87.6168 27.3673 77.0365 32.5669 60.7885C35.0478 53.0362 34.8632 48.043 29.6074 49.0603C9.56368 47.7671 31.7941 14.9965 50.5485 22.1864C56.0304 24.288 61.9359 26.9896 67.8165 30.1258C94.9637 44.6037 75.3751 53.4618 53.8387 75.4336Z" fill="#E9A116"/>
<path d="M105.963 99.6321C100.323 103.011 95.7182 108.003 92.9107 113.948C90.5254 118.999 87.0704 124.155 82.8554 124.337C74.8342 122.608 63.7868 104.772 63.6432 97.9595C65.9229 82.6647 127.572 78.4967 102.35 70.1206C98.6455 76.1643 128.242 86.2848 105.963 99.6321Z" fill="#E9A116"/>
<defs>
<linearGradient id="paint0_linear" x1="64.8889" y1="-1.52588e-05" x2="19.0796" y2="129.561" gradientUnits="userSpaceOnUse">
<stop stop-color="#3E8A66"/>
<stop offset="1" stop-color="#80FF00"/>
</linearGradient>
</defs>
</svg>
