<svg width="132" height="130" viewBox="0 0 132 130" fill="none" xmlns="http://www.w3.org/2000/svg">
<circle cx="66.1131" cy="64.9321" r="64.889" fill="url(#paint0_linear)"/>
<path d="M35.2295 61.7562C21.5372 72.4168 27.1434 91.128 36.6007 105.678C37.9624 107.773 37.2116 109.428 33.0566 110.232C14.0797 109.008 6.73376 82.0726 4.07708 66.5055C4.07708 30.6684 30.0681 3.45306 65.9053 3.45306C60.0489 17.2297 75.4807 30.4173 35.2295 61.7562Z" fill="#087E70"/>
<path d="M129.778 64.935C129.778 100.772 105.291 119.414 73.4598 121.25C41.5147 120.224 55.5375 116.592 67.3492 104.515C71.0586 100.722 69.247 94.8577 64.8216 91.9321C45.7071 79.2959 49.1118 64.9349 80.8056 64.9349C116.643 64.9349 107.74 45.3443 129.778 64.935Z" fill="#087E70"/>
<path d="M84.9538 48.402C84.9538 52.7971 86.0778 53.3014 80.6684 53.3014C77.4591 49.5977 76.8388 47.6866 77.2411 46.7246C77.9855 44.9447 80.8374 43.8611 82.4804 42.8498C84.4747 41.6224 87.4024 41.6703 87.4024 41.6703C88.0139 47.7919 84.9538 44.0069 84.9538 48.402Z" fill="#087E70"/>
<path d="M87.7483 38.9976C87.7483 38.9976 87.4217 38.9976 85.6541 38.9976C85.6541 38.9976 83.2538 40.0119 83.2538 37.7216C83.2538 35.4313 85.9807 35.5494 87.7483 35.5494C87.7483 35.5494 88.6546 36.7646 87.7483 38.9976Z" fill="#087E70"/>
<path d="M93.0484 50.2403C93.0484 50.2403 89.9187 53.9132 88.1512 53.9132C88.1512 53.9132 85.7025 51.0308 85.7025 48.7405C85.7025 46.4502 88.4294 46.5684 90.197 46.5684C90.197 46.5684 92.4363 47.7916 93.0484 50.2403Z" fill="#087E70"/>
<defs>
<linearGradient id="paint0_linear" x1="66.1131" y1="0.0431519" x2="66.1131" y2="129.821" gradientUnits="userSpaceOnUse">
<stop stop-color="#FFCB46"/>
<stop offset="0.52184" stop-color="#CD9912"/>
<stop offset="1" stop-color="#9F4F05"/>
</linearGradient>
</defs>
</svg>
